# xmcd
#
# Track frame offsets:
# 150
# 4602
# 5796
# 12995
# 14736
# 38848
# 40697
# 59271
# 60908
# 84651
# 87353
# 110312
# 111677
# 131408
# 132787
# 149755
# 151329
# 171930
# 174364
# 199559
# 202846
# 220745
# 223311
# 243292
# 244552
# 266554
# 269765
# 299526
# 301281
# 330074
# 331787
#
# Disc length: 4703 seconds
#
#
# Revision: 0
# Processed by: cddbd v1.5.2PL0 Copyright (c) Steve Scherf et al.
# Submitted via: FreeRIP 2.96 
#
DISCID=b9125d1f
DTITLE=MADONNA - INTIMATE - THE ACOUSTIC ALBUM
DYEAR=2007
DGENRE=Acoustic
TTITLE0=I Want You (Introduction)
TTITLE1=About Telling Stories
TTITLE2=Lament (Official Demo Recording)
TTITLE3=About Being Revolutionary
TTITLE4=Live To Tell (Official Demo Recording)
TTITLE5=About Inspiring Others
TTITLE6=Deeper And Deeper (Official Demo Recording)
TTITLE7=About Power And Using It
TTITLE8=Fever (Live On The 1000th Arsenio Hall Show)
TTITLE9=About Enjoying Success
TTITLE10=Sooner Or Later (Live At The 1991 Oscars)
TTITLE11=About Fame And Fortune
TTITLE12=Nothing Fails (Live On The 2003 MTV Showcase)
TTITLE13=About What Can Bring Happiness
TTITLE14=Imagine (Official Demo Recording)
TTITLE15=About Lola And Rocco
TTITLE16=Little Star (Live On The Oprah Winfrey Show)
TTITLE17=About Media And Critics
TTITLE18=Don't Cry For Me Argentina (Official Demo Recording)
TTITLE19=About Provoking And Searching
TTITLE20=Mother And Father (Live On The Today Show)
TTITLE21=About The World We Live In
TTITLE22=Guilty By Association (Duet With Joe Henry)
TTITLE23=About Using Your Talents
TTITLE24=Paradise Not For Me (Official Demo Recording)
TTITLE25=About Anger, Provocation And Ego
TTITLE26=Like A Prayer (Live On The 2003 MTV Showcase)
TTITLE27=About Looking Back
TTITLE28=La Isla Bonita (Live On The 2001 Drowned World Tour)
TTITLE29=Zaz Interlude
TTITLE30=Xtatic Process (Live On The 2003 MTV Showcase)
EXTD=EXCLUSIVE:\nThe voice of Madonna as you never heard before.\n80 minutes of acoustic unplugged hits.\nFeaturing the DIVA herself in her own words.
EXTT0=
EXTT1=
EXTT2=
EXTT3=
EXTT4=
EXTT5=
EXTT6=
EXTT7=
EXTT8=
EXTT9=
EXTT10=
EXTT11=
EXTT12=
EXTT13=
EXTT14=
EXTT15=
EXTT16=
EXTT17=
EXTT18=
EXTT19=
EXTT20=
EXTT21=
EXTT22=
EXTT23=
EXTT24=
EXTT25=
EXTT26=
EXTT27=
EXTT28=
EXTT29=
EXTT30=
PLAYORDER=
